<?xml version="1.0" encoding="UTF-8"?>
<svg id="_图层_1" data-name="图层 1" xmlns="http://www.w3.org/2000/svg" viewBox="0 0 493.52 396.13">
  <defs>
    <style>
      .cls-1, .cls-2 {
        stroke: #000;
        stroke-miterlimit: 10;
      }

      .cls-2 {
        fill: none;
      }
      @media (prefers-color-scheme: dark) {
        .cls-1, .cls-2 {
          stroke: white;
          fill: white;
        }
      }
    </style>
  </defs>
  <path class="cls-1" d="M321.73,128.57c-19.8-19.8-49.42,143.91,23,96l-8,6c-72.42,47.91-36-166-7-88"/>
  <path class="cls-1" d="M333.73,159.57c3,39-41,51-41,7,0-58.08,4-124-83-150C43.24-33.18,64.95,47.86,161.73,54.57c101,7,134-26,206-18,134.41,14.93,146,137,103,210-53.6,91-154,47-178-6-2.1-4.64-4-20-5-29-2.78-25.03-2-40-2-79l-2.77-5.25,.77,12.25c0-34-2.71,6.98,2,71,.4,5.49,1,13,5,26,14.93,48.53,120.4,101,174,10,43-73,31.41-192.07-103-207-72-8-88,22-189,15C75.95,47.86,38.73-19.43,209.73,22.57c80.58,19.79,81,89.92,81,148,0,44,59.01,25.83,39-28"/>
  <path class="cls-1" d="M283.73,166.57c-5,80-24.06,80.29-26,44-3-56-2-54-3-72-1-14-5-13-4,0,1,16,0,15,2,72,1.27,36.32,31,46,31-71"/>
  <path class="cls-2" d="M236.73,237.57c16-28,18-58,17-63"/>
  <path class="cls-1" d="M232.73,128.57c-9,0-8,126-4,197,3.83,67.9-32,76-49,63-14.07-10.76-30.76-35.11-13-73,15.45-32.96,54-48,70-78-19,35-52.55,47.04-68,80-15,32-3.83,60.13,13,73,17,13,55,4,51-63-3.52-59.02-3.15-212.08,.44-198.53,.43,1.62,.9,5.62,1.42,12.44"/>
  <path class="cls-2" d="M217.73,231.57c8,4,23.61-1.2,16.86-90.09"/>
  <path class="cls-1" d="M220.73,232.57c-22.36-11.18-18-139-19-151-3.62-43.42-14-47-41-47C-46.27,38.57-13.66,293.63,112.73,272.57c64.24-15.93,68-81,29-116l-9-4c50,35,33,108-27,118C-31.39,293.42-53.27,36.57,153.73,32.57c23-1,43,7,44,54,.27,12.63-5,165,27,145"/>
</svg>